<?xml version="1.0" encoding="utf-8"?>
<!-- Generator: Adobe Illustrator 16.0.0, SVG Export Plug-In . SVG Version: 6.00 Build 0)  -->
<!DOCTYPE svg PUBLIC "-//W3C//DTD SVG 1.1//EN" "http://www.w3.org/Graphics/SVG/1.1/DTD/svg11.dtd">
<svg xmlns="http://www.w3.org/2000/svg" xmlns:xlink="http://www.w3.org/1999/xlink" version="1.1" id="Layer_1" x="0px" y="0px" width="1400px" height="980px" viewBox="0 0 1400 980" enable-background="new 0 0 1400 980" xml:space="preserve">
<g>
	<g>
		<g>
			
		</g>
	</g>
	<g>
		<g>
			<path fill="#F1F2F2" d="M259.6,260.8l45,78.1c20.2-12.5,37.1-30,48.8-50.8h343.5c37.8,0,68.4-30.6,68.4-68.4     c0-37.8-30.6-68.4-68.4-68.4l-343.5,0c-4.7-8.4-10.3-16.2-16.5-23.4c-25.7-29.5-63.5-48.3-105.7-48.3     C153.8,79.5,91,142.3,91,219.6c0,14.7,2.3,28.8,6.4,42l123-68.8L259.6,260.8z M727.4,226.8c0,12.7-10.3,23-23,23     c-12.7,0-23-10.3-23-23c0-12.7,10.3-23,23-23C717.2,203.8,727.4,214.1,727.4,226.8z"/>
			<path d="M304.6,342.3c-0.3,0-0.6,0-0.8-0.1c-0.9-0.2-1.7-0.8-2.1-1.6l-82.4-143.1L99.2,264.7c-0.9,0.5-2,0.6-2.9,0.2     c-1-0.4-1.7-1.2-2-2.2c-4.4-13.9-6.6-28.4-6.6-43.1c0-79.2,64.4-143.5,143.6-143.5c41.5,0,81,18,108.3,49.4     c6,7,11.4,14.4,15.9,22.2l341.5,0c19.2,0,37.3,7.5,50.8,21.1c13.6,13.6,21.1,31.6,21.1,50.8c0,39.6-32.2,71.9-71.9,71.9H355.4     c-11.9,20.4-28.8,37.8-49,50.3C305.9,342.2,305.2,342.3,304.6,342.3z M220.5,189.4c1.2,0,2.3,0.6,3,1.7l82.3,142.9     c18.5-12.1,33.9-28.5,44.6-47.7c0.6-1.1,1.8-1.7,3-1.7h343.5c35.8,0,65-29.2,65-65c0-35.8-29.2-65-65-65l-343.5,0     c-1.2,0-2.4-0.7-3-1.7c-4.5-8-9.9-15.7-16.1-22.8c-26-29.9-63.6-47.1-103-47.1c-75.4,0-136.7,61.3-136.7,136.7     c0,12.5,1.7,25,5.1,37l119.3-66.7C219.4,189.6,219.9,189.4,220.5,189.4z M704.5,253.2c-14.6,0-26.4-11.8-26.4-26.4     c0-7.1,2.7-13.7,7.7-18.7c10-10,27.4-10,37.4,0c5,5,7.7,11.6,7.7,18.7c0,7.1-2.7,13.7-7.7,18.7     C718.2,250.5,711.5,253.2,704.5,253.2z M704.5,207.3c-5.2,0-10.1,2-13.8,5.7s-5.7,8.6-5.7,13.8c0,10.8,8.8,19.5,19.6,19.5     c5.2,0,10.1-2,13.8-5.7c3.7-3.7,5.7-8.6,5.7-13.8c0-5.2-2-10.1-5.7-13.8C714.6,209.3,709.7,207.3,704.5,207.3z"/>
		</g>
		<g>
			<path fill="#D1D3D4" d="M280.2,297c-15.6,9.7-34,15.2-53.6,15.2c-25,0-47.9-9-65.7-23.9l86.5-48.4L280.2,297z"/>
			<path d="M226.5,315.7L226.5,315.7c-24.8,0-48.9-8.8-67.9-24.7c-0.9-0.7-1.3-1.8-1.2-2.9c0.1-1.1,0.8-2.1,1.7-2.7l86.5-48.4     c1.6-0.9,3.7-0.3,4.6,1.3l32.8,57c0.9,1.6,0.4,3.7-1.2,4.6C265.3,310.2,246.1,315.7,226.5,315.7z M167,288.8     c17.1,12.9,38,20,59.5,20v3.4l0-3.4c17.2,0,34.1-4.5,49-13L246,244.6L167,288.8z"/>
		</g>
		<g>
			<path fill="#D1D3D4" d="M292.3,250c5.1,8.9,16.5,11.9,25.4,6.8l0,0c8.9-5.1,11.9-16.5,6.8-25.4l-32.1-55.8     c-5.1-8.9-16.5-12-25.4-6.8l0,0c-8.9,5.1-12,16.5-6.8,25.4L292.3,250z"/>
			<path d="M308.4,262.7L308.4,262.7c-7.9,0-15.2-4.2-19.1-11l-32.2-55.8c-6.1-10.5-2.4-24,8.1-30.1c3.3-1.9,7.1-2.9,11-2.9     c7.9,0,15.2,4.2,19.1,11l32.1,55.8c6,10.5,2.4,24-8.1,30.1C316.1,261.7,312.3,262.7,308.4,262.7z M276.3,169.7     c-2.6,0-5.2,0.7-7.5,2c-7.2,4.2-9.7,13.5-5.6,20.7l32.2,55.8c2.7,4.7,7.7,7.6,13.2,7.6l0,0c2.6,0,5.3-0.7,7.6-2     c7.2-4.2,9.7-13.5,5.6-20.7l-32.1-55.8C286.7,172.6,281.7,169.7,276.3,169.7z"/>
		</g>
		<g>
			<path fill="#D1D3D4" d="M608.9,252c13.9,0,25.1-11.2,25.1-25.1l0,0c0-13.9-11.3-25.2-25.1-25.2l-196.4,0     c-13.9,0-25.1,11.3-25.2,25.1l0,0c0,13.9,11.3,25.2,25.2,25.2L608.9,252z"/>
			<path d="M412.5,255.4L412.5,255.4c-15.8,0-28.6-12.8-28.6-28.6c0-15.8,12.8-28.6,28.6-28.6l196.4,0c15.8,0,28.6,12.8,28.6,28.6     c0,15.8-12.8,28.6-28.6,28.6L412.5,255.4z M608.9,205.1l-196.4,0c-12,0-21.7,9.7-21.7,21.7c0,12,9.7,21.7,21.7,21.7l196.4,0     c5.8,0,11.2-2.3,15.3-6.4c4.1-4.1,6.4-9.6,6.4-15.4C630.6,214.8,620.9,205.1,608.9,205.1z"/>
		</g>
	</g>
	<g>
		<path fill="#FFFFFF" d="M919.6,725.6c0,45.5-36.9,82.4-82.4,82.4H576.5c-45.5,0-82.4-36.9-82.4-82.4V281.8    c0-45.5,36.9-82.4,82.4-82.4h260.8c45.5,0,82.4,36.9,82.4,82.4V725.6z"/>
		<path d="M837.3,811.4H576.5c-47.3,0-85.8-38.5-85.8-85.8V281.8c0-47.3,38.5-85.8,85.8-85.8h260.8c47.3,0,85.8,38.5,85.8,85.8    v443.8C923,772.9,884.6,811.4,837.3,811.4z M576.5,202.9c-43.5,0-78.9,35.4-78.9,78.9v443.8c0,43.5,35.4,78.9,78.9,78.9h260.8    c43.5,0,78.9-35.4,78.9-78.9V281.8c0-43.5-35.4-78.9-78.9-78.9H576.5z"/>
	</g>
	<g>
		<path fill="#FFF4D7" d="M781.9,351.1c0,25.5-20.7,46.2-46.2,46.2c-25.5,0-46.2-20.7-46.2-46.2c0-25.5,20.7-46.2,46.2-46.2    C761.2,304.9,781.9,325.6,781.9,351.1z"/>
		<path d="M735.7,400.7c-27.4,0-49.6-22.3-49.6-49.6c0-27.4,22.3-49.6,49.6-49.6c27.4,0,49.6,22.3,49.6,49.6    C785.4,378.5,763.1,400.7,735.7,400.7z M735.7,308.3c-23.6,0-42.8,19.2-42.8,42.8s19.2,42.8,42.8,42.8s42.8-19.2,42.8-42.8    S759.3,308.3,735.7,308.3z"/>
	</g>
	<g>
		<path fill="#FFE07D" d="M735.7,292.5c-32.3,0-58.6,26.2-58.6,58.6c0,4.2,0.5,8.3,1.3,12.3l113.3-29.2    C784.5,310.1,762.2,292.5,735.7,292.5z"/>
		<path d="M678.5,366.8c-0.6,0-1.3-0.2-1.8-0.5c-0.8-0.5-1.4-1.3-1.5-2.2c-0.9-4.3-1.4-8.7-1.4-13c0-34.2,27.8-62,62-62    c27.1,0,51.5,18.1,59.4,44.1c0.3,0.9,0.2,1.9-0.3,2.7c-0.5,0.8-1.2,1.4-2.1,1.6l-113.3,29.2C679,366.8,678.8,366.8,678.5,366.8z     M735.7,296c-30.4,0-55.1,24.7-55.1,55.1c0,2.7,0.2,5.4,0.6,8.1l106.2-27.3C779.4,310.5,758.6,296,735.7,296z"/>
	</g>
	<g>
		<path d="M636.3,377.7c-1.5,0-2.9-1-3.3-2.6c-0.5-1.8,0.6-3.7,2.5-4.2l42.2-10.9c1.8-0.5,3.7,0.6,4.2,2.5c0.5,1.8-0.6,3.7-2.5,4.2    l-42.2,10.9C636.8,377.7,636.6,377.7,636.3,377.7z"/>
	</g>
	<g>
		<path fill="#C3E0FF" d="M837,616.4l-19.6-156.8c-3.7-29.9-31-51.1-60.9-47.4c-15.5,1.9-28.7,10.3-37.3,22l0,0l-43.9,46.7h-57.2    c-15.5,0-28.1,12.6-28.1,28.1c0,4.9,1.4,9.4,3.6,13.4h93.5l43.1-17.2l25.2,115.8c0,0.1,0,0.2,0,0.3l-60.4,23.8    c0,0-15.4,6-16.5,21.8l6.7,71.5h46.4V683h61.8C793.4,683,845.3,682.9,837,616.4z"/>
		<path d="M731.7,741.7h-46.4c-1.8,0-3.3-1.3-3.4-3.1l-6.7-71.5c1.2-18.4,17.9-25.1,18.7-25.3l57.7-22.8l-23.7-109.2l-39.4,15.7    c-0.4,0.2-0.8,0.2-1.3,0.2h-93.5c-1.3,0-2.4-0.7-3-1.8c-2.6-4.8-4-9.9-4-15.1c0-17.4,14.1-31.5,31.5-31.5h55.7l42.9-45.6    c9.5-12.9,23.5-21,39.4-23c32.1-4,60.8,19,64.7,50.4L840.4,616c2.9,23.6-1.1,41.9-12.1,54.4c-14,15.9-34.1,16.2-34.9,16.2h-58.3    v51.8C735.1,740.2,733.6,741.7,731.7,741.7z M688.4,734.8h39.8V683c0-1.9,1.5-3.4,3.4-3.4h61.8c0.2,0,17.9-0.3,29.8-13.9    c9.6-10.9,13.1-27.4,10.4-48.9L814,459.9c-3.5-27.6-28.7-47.9-57.1-44.4c-14.1,1.8-26.5,9.1-34.9,20.6c-0.2,0.2-0.4,0.4-0.6,0.6    l-43.6,46.4c-0.6,0.7-1.6,1.1-2.5,1.1h-57.2c-13.6,0-24.6,11.1-24.6,24.6c0,3.4,0.8,6.7,2.2,10h90.7l42.5-17    c0.9-0.4,2-0.3,2.9,0.2c0.9,0.5,1.5,1.3,1.7,2.3l25.2,115.8c0,0.2,0.1,0.6,0.1,0.7c0.1,1.5-0.8,2.9-2.2,3.5l-60.4,23.8    c-0.6,0.2-13.4,5.4-14.3,18.8L688.4,734.8z"/>
	</g>
	<g>
		<path d="M748.1,704.5c-1.9,0-3.4-1.5-3.4-3.4s1.5-3.4,3.4-3.4h45.8c0.2,0,27.7-0.5,44.7-18.9c10.2-11,14.7-26.2,13.5-45.2    c0-0.3,0-0.5,0-0.8l20.1-120.2c0.3-1.9,2.1-3.1,4-2.8c1.9,0.3,3.1,2.1,2.8,4L859,633.5c1.2,20.8-3.9,37.6-15.4,49.9    c-19.1,20.5-48.4,21-49.7,21H748.1z"/>
	</g>
	<g>
		<path d="M700.5,562.9h-158c-1.9,0-3.4-1.5-3.4-3.4s1.5-3.4,3.4-3.4h158c1.9,0,3.4,1.5,3.4,3.4S702.4,562.9,700.5,562.9z"/>
	</g>
	<g>
		<path d="M591.8,544c-4.7,0-16.7-0.9-26-9.2c-7.4-6.7-11.2-16.4-11.4-29l-3.2-98.8c-0.1-1.9,1.4-3.5,3.3-3.5c1.6,0,3.5,1.4,3.5,3.3    l3.2,98.8c0.2,10.6,3.3,18.7,9.2,24c9.4,8.5,23,7.4,23.1,7.4l92.1,0c1.9,0,3.4,1.5,3.4,3.4s-1.5,3.4-3.4,3.4h-91.8    C593.7,543.9,593,544,591.8,544z"/>
	</g>
	<g>
		<g>
			<polygon fill="#FFE07D" points="417.3,222.6 417.3,703.4 96.5,703.4    "/>
			<path d="M417.3,706.8H96.5c-1.3,0-2.4-0.7-3-1.8c-0.6-1.1-0.5-2.5,0.2-3.5l320.8-480.8c0.8-1.3,2.4-1.8,3.9-1.4     c1.4,0.4,2.4,1.8,2.4,3.3v480.8C420.8,705.3,419.2,706.8,417.3,706.8z M102.9,699.9h311v-466L102.9,699.9z"/>
		</g>
		<g>
			<g>
				<polygon fill="#FFFFFF" points="212,641.6 355.6,426.4 355.6,641.6     "/>
			</g>
			<g>
				<path d="M355.6,645H212c-1.3,0-2.4-0.7-3-1.8c-0.6-1.1-0.5-2.5,0.2-3.5l143.6-215.2c0.8-1.3,2.4-1.8,3.9-1.4      c1.4,0.4,2.4,1.8,2.4,3.3v215.2C359,643.5,357.5,645,355.6,645z M218.4,638.2h133.8V437.8L218.4,638.2z"/>
			</g>
		</g>
		<g>
			<path d="M417.3,299.8h-19.1c-1.9,0-3.4-1.5-3.4-3.4s1.5-3.4,3.4-3.4h19.1c1.9,0,3.4,1.5,3.4,3.4S419.2,299.8,417.3,299.8z"/>
		</g>
		<g>
			<path d="M417.3,346.4h-19.1c-1.9,0-3.4-1.5-3.4-3.4c0-1.9,1.5-3.4,3.4-3.4h19.1c1.9,0,3.4,1.5,3.4,3.4     C420.8,344.9,419.2,346.4,417.3,346.4z"/>
		</g>
		<g>
			<path d="M417.3,393h-19.1c-1.9,0-3.4-1.5-3.4-3.4c0-1.9,1.5-3.4,3.4-3.4h19.1c1.9,0,3.4,1.5,3.4,3.4     C420.8,391.5,419.2,393,417.3,393z"/>
		</g>
		<g>
			<path d="M417.3,439.7h-19.1c-1.9,0-3.4-1.5-3.4-3.4c0-1.9,1.5-3.4,3.4-3.4h19.1c1.9,0,3.4,1.5,3.4,3.4     C420.8,438.1,419.2,439.7,417.3,439.7z"/>
		</g>
		<g>
			<path d="M417.3,486.3h-19.1c-1.9,0-3.4-1.5-3.4-3.4c0-1.9,1.5-3.4,3.4-3.4h19.1c1.9,0,3.4,1.5,3.4,3.4     C420.8,484.8,419.2,486.3,417.3,486.3z"/>
		</g>
		<g>
			<path d="M417.3,532.9h-19.1c-1.9,0-3.4-1.5-3.4-3.4s1.5-3.4,3.4-3.4h19.1c1.9,0,3.4,1.5,3.4,3.4S419.2,532.9,417.3,532.9z"/>
		</g>
		<g>
			<path d="M417.3,579.5h-19.1c-1.9,0-3.4-1.5-3.4-3.4c0-1.9,1.5-3.4,3.4-3.4h19.1c1.9,0,3.4,1.5,3.4,3.4     C420.8,578,419.2,579.5,417.3,579.5z"/>
		</g>
		<g>
			<path d="M417.3,626.2h-19.1c-1.9,0-3.4-1.5-3.4-3.4c0-1.9,1.5-3.4,3.4-3.4h19.1c1.9,0,3.4,1.5,3.4,3.4     C420.8,624.6,419.2,626.2,417.3,626.2z"/>
		</g>
		<g>
			<path d="M417.3,672.8h-19.1c-1.9,0-3.4-1.5-3.4-3.4s1.5-3.4,3.4-3.4h19.1c1.9,0,3.4,1.5,3.4,3.4S419.2,672.8,417.3,672.8z"/>
		</g>
	</g>
	<g>
		<g>
			<g>
				<path fill="#D1D3D4" d="M130.9,841.9v-8.6H114V721.5l33.2-113h22.1v116h-13.5v38.7h510.2v70H153.6v8.6V868      c0,12.6-10.2,22.7-22.8,22.7V841.9z"/>
				<path d="M130.9,894.2c-1.9,0-3.4-1.5-3.4-3.4v-54.1H114c-1.9,0-3.4-1.5-3.4-3.4V721.5c0-0.3,0-0.7,0.1-1l33.2-113      c0.4-1.5,1.8-2.5,3.3-2.5h22.1c1.9,0,3.4,1.5,3.4,3.4v116c0,1.9-1.5,3.4-3.4,3.4h-10.1v31.8h506.8c1.9,0,3.4,1.5,3.4,3.4v70      c0,1.9-1.5,3.4-3.4,3.4H157.1V868C157.1,882.4,145.3,894.2,130.9,894.2z M117.4,829.8h13.4c1.9,0,3.4,1.5,3.4,3.4V887      c9-1.6,15.9-9.5,15.9-19v-34.8c0-1.9,1.5-3.4,3.4-3.4h508.9v-63.1H155.8c-1.9,0-3.4-1.5-3.4-3.4v-38.7c0-1.9,1.5-3.4,3.4-3.4      h10.1V612h-16.1l-32.3,110V829.8z"/>
			</g>
			<g>
				<rect x="326.4" y="867" fill="#D1D3D4" width="60.2" height="16.6"/>
				<path d="M386.6,887h-60.2c-1.9,0-3.4-1.5-3.4-3.4V867c0-1.9,1.5-3.4,3.4-3.4h60.2c1.9,0,3.4,1.5,3.4,3.4v16.6      C390,885.5,388.5,887,386.6,887z M329.9,880.2h53.3v-9.7h-53.3V880.2z"/>
			</g>
			<g>
				<path fill="#C2C3C4" d="M224.3,833.3h-22.8V868c0,12.6,10.2,22.7,22.8,22.7V833.3z"/>
				<path d="M224.3,894.2c-14.4,0-26.2-11.7-26.2-26.2v-34.8c0-1.9,1.5-3.4,3.4-3.4h22.8c1.9,0,3.4,1.5,3.4,3.4v57.5      C227.7,892.7,226.1,894.2,224.3,894.2z M204.9,836.7V868c0,9.5,6.9,17.4,15.9,19v-50.3H204.9z"/>
			</g>
			<g>
				<polygon fill="#C2C3C4" points="665.9,787.7 694.6,787.7 715.5,809.8 665.9,809.8     "/>
				<path d="M715.6,813.2c0,0-0.1,0-0.1,0h-49.5c-1.9,0-3.4-1.5-3.4-3.4v-22.1c0-1.9,1.5-3.4,3.4-3.4h28.7c0.9,0,1.8,0.4,2.5,1.1      l20.4,21.6c0.9,0.6,1.6,1.7,1.6,2.9C719,811.7,717.5,813.2,715.6,813.2z M669.4,806.4h38.1l-14.4-15.2h-23.7V806.4z"/>
			</g>
			<g>
				<line fill="#FFFFFF" x1="495" y1="777.4" x2="495" y2="803.8"/>
				<path d="M495,807.2c-1.9,0-3.4-1.5-3.4-3.4v-26.4c0-1.9,1.5-3.4,3.4-3.4c1.9,0,3.4,1.5,3.4,3.4v26.4      C498.4,805.7,496.8,807.2,495,807.2z"/>
			</g>
			<g>
				<line fill="#FFFFFF" x1="526.3" y1="777.4" x2="526.3" y2="803.8"/>
				<path d="M526.3,807.2c-1.9,0-3.4-1.5-3.4-3.4v-26.4c0-1.9,1.5-3.4,3.4-3.4s3.4,1.5,3.4,3.4v26.4      C529.7,805.7,528.2,807.2,526.3,807.2z"/>
			</g>
			<g>
				<line fill="#FFFFFF" x1="557.6" y1="777.4" x2="557.6" y2="803.8"/>
				<path d="M557.6,807.2c-1.9,0-3.4-1.5-3.4-3.4v-26.4c0-1.9,1.5-3.4,3.4-3.4c1.9,0,3.4,1.5,3.4,3.4v26.4      C561,805.7,559.5,807.2,557.6,807.2z"/>
			</g>
			<g>
				<line fill="#FFFFFF" x1="588.9" y1="777.4" x2="588.9" y2="803.8"/>
				<path d="M588.9,807.2c-1.9,0-3.4-1.5-3.4-3.4v-26.4c0-1.9,1.5-3.4,3.4-3.4s3.4,1.5,3.4,3.4v26.4      C592.3,805.7,590.8,807.2,588.9,807.2z"/>
			</g>
			<g>
				<line fill="#FFFFFF" x1="620.2" y1="777.4" x2="620.2" y2="803.8"/>
				<path d="M620.2,807.2c-1.9,0-3.4-1.5-3.4-3.4v-26.4c0-1.9,1.5-3.4,3.4-3.4s3.4,1.5,3.4,3.4v26.4      C623.6,805.7,622.1,807.2,620.2,807.2z"/>
			</g>
		</g>
		<g>
			<polygon fill="#F1F2F2" points="295.2,743.2 295.2,721.5 262,608.5 239.9,608.5 239.9,724.6 253.4,724.6 253.4,756.1      253.4,789.9 253.4,808.7 253.4,822.8 253.4,854.1 484.2,854.1 484.2,822.8 484.2,808.7 484.2,789.9 484.2,756.1 484.2,743.2         "/>
			<path d="M484.2,857.6H253.4c-1.9,0-3.4-1.5-3.4-3.4V728h-10.1c-1.9,0-3.4-1.5-3.4-3.4v-116c0-1.9,1.5-3.4,3.4-3.4H262     c1.5,0,2.9,1,3.3,2.5l33.1,113c0.1,0.3,0.1,0.6,0.1,1v18.3h185.6c1.9,0,3.4,1.5,3.4,3.4v110.9C487.6,856,486.1,857.6,484.2,857.6     z M256.8,850.7h223.9V746.6H295.2c-1.9,0-3.4-1.5-3.4-3.4V722l-32.3-110h-16.1v109.2h10.1c1.9,0,3.4,1.5,3.4,3.4V850.7z"/>
		</g>
	</g>
	<g>
		<path d="M798.6,887h-296c-1.9,0-3.4-1.5-3.4-3.4s1.5-3.4,3.4-3.4h296c1.9,0,3.4,1.5,3.4,3.4S800.5,887,798.6,887z"/>
	</g>
	<g>
		<path d="M899.5,887h-46.9c-1.9,0-3.4-1.5-3.4-3.4s1.5-3.4,3.4-3.4h46.9c1.9,0,3.4,1.5,3.4,3.4S901.4,887,899.5,887z"/>
	</g>
	<g>
		<path d="M899.5,846.2H755.4c-1.9,0-3.4-1.5-3.4-3.4s1.5-3.4,3.4-3.4h144.1c1.9,0,3.4,1.5,3.4,3.4S901.4,846.2,899.5,846.2z"/>
	</g>
	<g>
		<polygon fill="#F1F2F2" points="1156.9,627.7 1262.4,627.7 1262.4,541.4 1092.5,541.4 1030.9,603 1030.9,679.7 1124,679.7   "/>
		<path d="M1124,683.1h-93.1c-1.9,0-3.4-1.5-3.4-3.4V603c0-0.9,0.4-1.8,1-2.4l61.6-61.6c0.6-0.6,1.5-1,2.4-1h169.8    c1.9,0,3.4,1.5,3.4,3.4v86.3c0,1.9-1.5,3.4-3.4,3.4h-103.6l-31.9,50.4C1126.3,682.5,1125.2,683.1,1124,683.1z M1034.3,676.3h87.8    l31.9-50.4c0.6-1,1.7-1.6,2.9-1.6h102v-79.4h-165l-59.6,59.6V676.3z"/>
	</g>
	<g>
		<polygon fill="#FFE07D" points="1262.4,627.7 1156.9,627.7 1124,679.7 1030.9,679.7 970.7,679.7 970.7,894.7 1118.6,894.7     1304.8,894.7 1304.8,627.7   "/>
		<path d="M1304.8,898.1H970.7c-1.9,0-3.4-1.5-3.4-3.4v-215c0-1.9,1.5-3.4,3.4-3.4h151.5l31.9-50.4c0.6-1,1.7-1.6,2.9-1.6h147.9    c1.9,0,3.4,1.5,3.4,3.4v267.1C1308.3,896.6,1306.7,898.1,1304.8,898.1z M974.1,891.3h327.3V631.1h-142.6l-31.9,50.4    c-0.6,1-1.7,1.6-2.9,1.6h-150V891.3z"/>
	</g>
	<g>
		<line fill="#FFFFFF" x1="1022" y1="754.7" x2="1194.6" y2="754.7"/>
		<path d="M1194.6,758.1H1022c-1.9,0-3.4-1.5-3.4-3.4c0-1.9,1.5-3.4,3.4-3.4h172.6c1.9,0,3.4,1.5,3.4,3.4    C1198,756.6,1196.5,758.1,1194.6,758.1z"/>
	</g>
	<g>
		<line fill="#FFFFFF" x1="1022" y1="817.3" x2="1194.6" y2="817.3"/>
		<path d="M1194.6,820.8H1022c-1.9,0-3.4-1.5-3.4-3.4s1.5-3.4,3.4-3.4h172.6c1.9,0,3.4,1.5,3.4,3.4S1196.5,820.8,1194.6,820.8z"/>
	</g>
	<g>
		<polygon fill="#FFFFFF" points="1092.5,603 1092.5,541.4 1030.9,603   "/>
		<path d="M1092.5,606.4h-61.6c-1.4,0-2.6-0.8-3.2-2.1c-0.5-1.3-0.2-2.8,0.7-3.7l61.6-61.6c1-1,2.5-1.3,3.7-0.7    c1.3,0.5,2.1,1.8,2.1,3.2V603C1096,604.9,1094.4,606.4,1092.5,606.4z M1039.2,599.6h49.9v-49.9L1039.2,599.6z"/>
	</g>
	<g>
		<g>
			<rect x="996.4" y="162.2" fill="#C3E0FF" width="308.4" height="308.4"/>
			<path d="M1304.8,474.1H996.4c-1.9,0-3.4-1.5-3.4-3.4V162.2c0-1.9,1.5-3.4,3.4-3.4h308.4c1.9,0,3.4,1.5,3.4,3.4v308.4     C1308.3,472.5,1306.7,474.1,1304.8,474.1z M999.8,467.2h301.5V165.7H999.8V467.2z"/>
		</g>
		<g>
			<g>
				<path fill="#FFFFFF" d="M1192.5,470.6V361h0.4l42.4-73.4l-42.4-73.4h-0.7l-7.1,0.1v76.8c-0.1,0.1-0.2,0.3-0.3,0.4l-30.8,17.8      c-1.2,0.1-2.3,0.2-3.5,0.2s-2.3-0.1-3.5-0.2l-30.8-17.8c-0.1-0.1-0.2-0.3-0.3-0.4v-76.8l-7.1-0.1h-0.7v0.1l-42.3,73.3l42.4,73.4      h0.4v109.6H1192.5z"/>
				<path d="M1192.5,474.1h-83.9c-1.9,0-3.4-1.5-3.4-3.4v-108l-42.3-73.3c-0.6-1.1-0.6-2.4,0-3.4l42.2-73.1c0.6-1.2,1.7-2,3.1-2      l7.9,0.1c1.9,0,3.4,1.6,3.4,3.4v75l28.7,16.6c1.6,0.1,3.2,0.1,4.8,0l28.7-16.6v-75c0-1.9,1.5-3.4,3.4-3.4l7.1-0.1      c0,0,0.7,0,0.7,0c1.2,0,2.4,0.7,3,1.7l42.4,73.4c0.6,1.1,0.6,2.4,0,3.4l-42.4,73.4v107.9C1196,472.5,1194.4,474.1,1192.5,474.1z       M1112.1,467.2h77V361c0-1.2,0.6-2.3,1.6-2.9l40.7-70.5l-40.4-69.9l-2.4,0v73.4c0,0.7-0.2,1.3-0.6,1.9c-0.3,0.5-1,1.2-1.5,1.5      l-30.8,17.8c-0.4,0.3-0.9,0.4-1.4,0.4c-2.5,0.2-5,0.2-7.5,0c-0.5,0-1-0.2-1.4-0.4l-30.8-17.8c-0.5-0.3-0.9-0.6-1.2-1.1      c-0.4-0.6-0.8-1.6-0.8-2.3v-73.4l-2.4,0l-40.4,69.9l40.9,70.9c0.8,0.6,1.4,1.5,1.4,2.5V467.2z"/>
			</g>
			<g>
				<line fill="#FFFFFF" x1="1167.8" y1="470.6" x2="1167.8" y2="356.5"/>
				<path d="M1167.8,474.1c-1.9,0-3.4-1.5-3.4-3.4V356.5c0-1.9,1.5-3.4,3.4-3.4s3.4,1.5,3.4,3.4v114.2      C1171.2,472.5,1169.7,474.1,1167.8,474.1z"/>
			</g>
		</g>
	</g>
	<g>
		<path fill="#C3E0FF" d="M282.7,453.3c0,50.2-40.7,90.9-90.9,90.9c-50.2,0-90.9-40.7-90.9-90.9c0-50.2,40.7-90.9,90.9-90.9    C242,362.4,282.7,403.1,282.7,453.3z"/>
		<path d="M191.8,547.6c-52,0-94.3-42.3-94.3-94.3c0-52,42.3-94.3,94.3-94.3c52,0,94.3,42.3,94.3,94.3    C286.1,505.3,243.8,547.6,191.8,547.6z M191.8,365.8c-48.2,0-87.5,39.2-87.5,87.5s39.2,87.5,87.5,87.5c48.2,0,87.5-39.2,87.5-87.5    S240,365.8,191.8,365.8z"/>
	</g>
	<g>
		<g>
			<line fill="#FFFFFF" x1="164.5" y1="397.1" x2="164.5" y2="509.4"/>
			<path d="M164.5,512.9c-1.9,0-3.4-1.5-3.4-3.4V397.1c0-1.9,1.5-3.4,3.4-3.4c1.9,0,3.4,1.5,3.4,3.4v112.3     C168,511.3,166.4,512.9,164.5,512.9z"/>
		</g>
		<g>
			<line fill="#FFFFFF" x1="219" y1="397.1" x2="219" y2="509.4"/>
			<path d="M219,512.9c-1.9,0-3.4-1.5-3.4-3.4V397.1c0-1.9,1.5-3.4,3.4-3.4c1.9,0,3.4,1.5,3.4,3.4v112.3     C222.4,511.3,220.9,512.9,219,512.9z"/>
		</g>
		<g>
			<line fill="#FFFFFF" x1="247.9" y1="426" x2="135.6" y2="426"/>
			<path d="M247.9,429.5H135.6c-1.9,0-3.4-1.5-3.4-3.4c0-1.9,1.5-3.4,3.4-3.4h112.3c1.9,0,3.4,1.5,3.4,3.4     C251.3,427.9,249.8,429.5,247.9,429.5z"/>
		</g>
		<g>
			<line fill="#FFFFFF" x1="247.9" y1="480.5" x2="135.6" y2="480.5"/>
			<path d="M247.9,483.9H135.6c-1.9,0-3.4-1.5-3.4-3.4c0-1.9,1.5-3.4,3.4-3.4h112.3c1.9,0,3.4,1.5,3.4,3.4     C251.3,482.4,249.8,483.9,247.9,483.9z"/>
		</g>
	</g>
	<g>
		<path d="M899.5,155.3h-129c-1.9,0-3.4-1.5-3.4-3.4c0-1.9,1.5-3.4,3.4-3.4h129c1.9,0,3.4,1.5,3.4,3.4    C903,153.8,901.4,155.3,899.5,155.3z"/>
	</g>
	<g>
		<path d="M948.7,193.1h-49.2c-1.9,0-3.4-1.5-3.4-3.4c0-1.9,1.5-3.4,3.4-3.4h49.2c1.9,0,3.4,1.5,3.4,3.4    C952.1,191.5,950.6,193.1,948.7,193.1z"/>
	</g>
	<g>
		<path d="M1016.2,95.8H452.3c-1.9,0-3.4-1.5-3.4-3.4c0-1.9,1.5-3.4,3.4-3.4h563.9c1.9,0,3.4,1.5,3.4,3.4    C1019.6,94.3,1018.1,95.8,1016.2,95.8z"/>
	</g>
	<g>
		<path d="M1167.8,95.8h-75.3c-1.9,0-3.4-1.5-3.4-3.4c0-1.9,1.5-3.4,3.4-3.4h75.3c1.9,0,3.4,1.5,3.4,3.4    C1171.2,94.3,1169.7,95.8,1167.8,95.8z"/>
	</g>
</g>
</svg>
